<svg width="139" height="45" viewBox="0 0 139 45" fill="none" xmlns="http://www.w3.org/2000/svg">
<rect width="139" height="44.48" rx="8.34" fill="#181818"/>
<path d="M29.2914 20.9319C29.2645 17.9397 31.7414 16.4841 31.8546 16.4163C30.4519 14.3711 28.2776 14.0917 27.5136 14.0694C25.6875 13.8772 23.9162 15.1621 22.986 15.1621C22.0372 15.1621 20.6047 14.088 19.0609 14.1195C17.0742 14.1502 15.2156 15.3004 14.1963 17.0866C12.0926 20.7286 13.6615 26.0806 15.677 29.0244C16.6852 30.4662 17.8633 32.076 19.4053 32.0193C20.9139 31.9571 21.4774 31.0575 23.2979 31.0575C25.1017 31.0575 25.6309 32.0193 27.2035 31.9831C28.8226 31.9571 29.8419 30.5349 30.8149 29.0801C31.9799 27.4276 32.4478 25.8002 32.4664 25.7167C32.4284 25.7037 29.3221 24.5181 29.2914 20.9319Z" fill="white"/>
<path d="M26.3213 12.132C27.1326 11.1173 27.6878 9.73684 27.5337 8.33594C26.3593 8.38793 24.8907 9.14826 24.0449 10.1407C23.2967 11.0152 22.6282 12.4486 22.8009 13.7966C24.1201 13.895 25.4746 13.1309 26.3213 12.132Z" fill="white"/>
<path d="M51.1313 31.8146H49.023L47.8681 28.1857H43.8539L42.7538 31.8146H40.7012L44.6783 19.46H47.1347L51.1313 31.8146ZM47.52 26.6631L46.4756 23.4371C46.3651 23.1075 46.1581 22.3314 45.8527 21.1097H45.8155C45.6939 21.6351 45.498 22.4112 45.2288 23.4371L44.203 26.6631H47.52Z" fill="white"/>
<path d="M61.3583 27.2483C61.3583 28.7634 60.9489 29.961 60.1301 30.8402C59.3967 31.6228 58.4859 32.0136 57.3988 32.0136C56.2254 32.0136 55.3824 31.5922 54.869 30.7492H54.8319V35.4421H52.8526V25.8363C52.8526 24.8838 52.8276 23.9062 52.7793 22.9036H54.52L54.6304 24.3156H54.6676C55.3277 23.2517 56.3294 22.7207 57.6736 22.7207C58.7245 22.7207 59.6018 23.1357 60.3037 23.9666C61.0074 24.7984 61.3583 25.892 61.3583 27.2483ZM59.3419 27.3207C59.3419 26.4537 59.1469 25.7388 58.7552 25.1762C58.3272 24.5895 57.7525 24.2961 57.0321 24.2961C56.5438 24.2961 56.1 24.4595 55.7036 24.7817C55.3063 25.1066 55.0464 25.5309 54.9247 26.0563C54.8635 26.3014 54.8328 26.5019 54.8328 26.6598V28.1451C54.8328 28.7931 55.0315 29.3399 55.4288 29.7865C55.8262 30.233 56.3423 30.4558 56.9773 30.4558C57.7228 30.4558 58.303 30.168 58.718 29.5943C59.1339 29.0197 59.3419 28.2621 59.3419 27.3207Z" fill="white"/>
<path d="M71.6034 27.2483C71.6034 28.7634 71.194 29.961 70.3743 30.8402C69.6418 31.6228 68.7311 32.0136 67.644 32.0136C66.4705 32.0136 65.6276 31.5922 65.1151 30.7492H65.078V35.4421H63.0987V25.8363C63.0987 24.8838 63.0737 23.9062 63.0254 22.9036H64.7661L64.8765 24.3156H64.9137C65.5728 23.2517 66.5745 22.7207 67.9197 22.7207C68.9697 22.7207 69.847 23.1357 70.5507 23.9666C71.2516 24.7984 71.6034 25.892 71.6034 27.2483ZM69.587 27.3207C69.587 26.4537 69.3912 25.7388 68.9994 25.1762C68.5714 24.5895 67.9986 24.2961 67.2773 24.2961C66.788 24.2961 66.3452 24.4595 65.9479 24.7817C65.5505 25.1066 65.2915 25.5309 65.1699 26.0563C65.1096 26.3014 65.078 26.5019 65.078 26.6598V28.1451C65.078 28.7931 65.2767 29.3399 65.6721 29.7865C66.0695 30.2321 66.5857 30.4558 67.2225 30.4558C67.968 30.4558 68.5482 30.168 68.9632 29.5943C69.3791 29.0197 69.587 28.2621 69.587 27.3207Z" fill="white"/>
<path d="M83.063 28.3484C83.063 29.3993 82.6981 30.2543 81.9657 30.9144C81.1608 31.6357 80.0402 31.9959 78.6004 31.9959C77.2709 31.9959 76.2052 31.7397 75.3984 31.2263L75.8571 29.5766C76.726 30.1021 77.6794 30.3657 78.7183 30.3657C79.4637 30.3657 80.044 30.1968 80.4608 29.8607C80.8758 29.5246 81.0828 29.0734 81.0828 28.5109C81.0828 28.0095 80.912 27.5871 80.5694 27.2446C80.2287 26.902 79.6596 26.5836 78.8649 26.2893C76.7019 25.4825 75.6212 24.3007 75.6212 22.7466C75.6212 21.731 76 20.8983 76.7585 20.2503C77.5142 19.6013 78.5224 19.2773 79.7831 19.2773C80.9073 19.2773 81.8413 19.4732 82.5867 19.8641L82.0919 21.4776C81.3957 21.0988 80.6084 20.9094 79.7274 20.9094C79.0311 20.9094 78.4871 21.0812 78.0972 21.4228C77.7676 21.7282 77.6024 22.1005 77.6024 22.5415C77.6024 23.0298 77.7908 23.4336 78.1696 23.7511C78.4992 24.0445 79.098 24.362 79.9669 24.7046C81.0299 25.1325 81.8106 25.6329 82.3129 26.2067C82.8133 26.7785 83.063 27.4943 83.063 28.3484Z" fill="white"/>
<path d="M89.605 24.3936H87.4234V28.7188C87.4234 29.8189 87.8077 30.3685 88.5783 30.3685C88.932 30.3685 89.2253 30.3379 89.4574 30.2766L89.5122 31.7796C89.1223 31.9254 88.6089 31.9987 87.973 31.9987C87.1913 31.9987 86.5804 31.7602 86.1395 31.2839C85.7003 30.8067 85.4794 30.0065 85.4794 28.8822V24.3917H84.1797V22.9063H85.4794V21.2752L87.4234 20.6885V22.9063H89.605V24.3936Z" fill="white"/>
<path d="M99.4483 27.2865C99.4483 28.6559 99.0566 29.7801 98.2749 30.6593C97.4551 31.5644 96.3671 32.0156 95.0108 32.0156C93.7036 32.0156 92.6629 31.5821 91.8868 30.715C91.1107 29.8479 90.7227 28.7534 90.7227 27.4342C90.7227 26.0537 91.1219 24.9229 91.923 24.0438C92.7223 23.1637 93.8011 22.7236 95.1574 22.7236C96.4646 22.7236 97.5164 23.1572 98.3102 24.0252C99.0696 24.8672 99.4483 25.9543 99.4483 27.2865ZM97.3948 27.3506C97.3948 26.529 97.2193 25.8244 96.8638 25.2367C96.4488 24.5256 95.8556 24.171 95.0869 24.171C94.2913 24.171 93.6869 24.5265 93.2719 25.2367C92.9164 25.8253 92.7409 26.5411 92.7409 27.3877C92.7409 28.2093 92.9164 28.914 93.2719 29.5007C93.6999 30.2118 94.2978 30.5665 95.0692 30.5665C95.8249 30.5665 96.4182 30.2044 96.8461 29.4821C97.211 28.8833 97.3948 28.1713 97.3948 27.3506Z" fill="white"/>
<path d="M105.883 24.6443C105.688 24.6081 105.479 24.5895 105.26 24.5895C104.563 24.5895 104.025 24.8522 103.646 25.3786C103.316 25.8428 103.151 26.4295 103.151 27.1379V31.8122H101.173L101.191 25.7091C101.191 24.6823 101.166 23.7475 101.117 22.9045H102.841L102.914 24.609H102.968C103.177 24.0232 103.507 23.5516 103.958 23.1979C104.399 22.8795 104.875 22.7207 105.389 22.7207C105.571 22.7207 105.737 22.7337 105.883 22.7569V24.6443Z" fill="white"/>
<path d="M114.732 26.9385C114.732 27.2931 114.709 27.592 114.66 27.8362H108.722C108.745 28.7163 109.032 29.3893 109.584 29.8535C110.084 30.2685 110.731 30.4765 111.526 30.4765C112.405 30.4765 113.207 30.3363 113.929 30.055L114.239 31.429C113.396 31.7966 112.4 31.9795 111.252 31.9795C109.871 31.9795 108.786 31.5729 107.997 30.7605C107.21 29.9482 106.815 28.8574 106.815 27.489C106.815 26.1456 107.182 25.027 107.916 24.1348C108.685 23.1823 109.724 22.7061 111.031 22.7061C112.315 22.7061 113.287 23.1823 113.947 24.1348C114.47 24.8914 114.732 25.8272 114.732 26.9385ZM112.845 26.4251C112.858 25.8384 112.729 25.3315 112.461 24.9035C112.118 24.353 111.592 24.0782 110.884 24.0782C110.236 24.0782 109.71 24.3465 109.308 24.8849C108.979 25.3129 108.783 25.8263 108.722 26.4242L112.845 26.4251Z" fill="white"/>
<path d="M46.8542 11.8554C46.8542 12.948 46.5265 13.7706 45.872 14.323C45.2658 14.8326 44.4043 15.0879 43.2884 15.0879C42.7351 15.0879 42.2616 15.0638 41.8652 15.0155V9.0452C42.3823 8.96165 42.9393 8.91895 43.5409 8.91895C44.6039 8.91895 45.4051 9.15011 45.9454 9.61243C46.5507 10.1351 46.8542 10.8824 46.8542 11.8554ZM45.8284 11.8823C45.8284 11.1739 45.6409 10.6308 45.2658 10.2521C44.8908 9.87423 44.343 9.68485 43.6217 9.68485C43.3153 9.68485 43.0545 9.70527 42.8382 9.74797V14.2867C42.9579 14.3053 43.177 14.3137 43.4954 14.3137C44.24 14.3137 44.8146 14.1066 45.2194 13.6926C45.6242 13.2785 45.8284 12.6751 45.8284 11.8823Z" fill="white"/>
<path d="M52.2941 12.8094C52.2941 13.4825 52.1019 14.0339 51.7175 14.4666C51.3146 14.9112 50.7808 15.1331 50.1143 15.1331C49.4718 15.1331 48.9603 14.9205 48.5788 14.4935C48.1981 14.0674 48.0078 13.5298 48.0078 12.8818C48.0078 12.2041 48.2037 11.648 48.5973 11.2164C48.9909 10.7847 49.5201 10.5684 50.1867 10.5684C50.8291 10.5684 51.3453 10.781 51.7361 11.2071C52.1075 11.6211 52.2941 12.1559 52.2941 12.8094ZM51.2849 12.841C51.2849 12.4372 51.1977 12.0909 51.0241 11.8022C50.8198 11.4531 50.5292 11.2786 50.1514 11.2786C49.7606 11.2786 49.4635 11.4531 49.2592 11.8022C49.0847 12.0909 48.9984 12.4427 48.9984 12.8586C48.9984 13.2625 49.0856 13.6088 49.2592 13.8975C49.47 14.2465 49.7633 14.4211 50.1421 14.4211C50.5135 14.4211 50.805 14.2438 51.0148 13.8882C51.1949 13.5939 51.2849 13.2448 51.2849 12.841Z" fill="white"/>
<path d="M59.5888 10.6572L58.2194 15.0335H57.3282L56.761 13.1332C56.6171 12.6588 56.5001 12.1872 56.4091 11.7193H56.3915C56.307 12.2002 56.19 12.6708 56.0396 13.1332L55.4371 15.0335H54.5357L53.248 10.6572H54.2479L54.7427 12.7377C54.8625 13.2297 54.9609 13.6985 55.0398 14.1423H55.0574C55.1298 13.7765 55.2496 13.3105 55.4186 12.747L56.0396 10.6582H56.8325L57.4275 12.7024C57.5714 13.2009 57.6884 13.6809 57.7784 14.1432H57.8054C57.8713 13.693 57.9706 13.213 58.1025 12.7024L58.6335 10.6582H59.5888V10.6572Z" fill="white"/>
<path d="M64.629 15.0327H63.656V12.5261C63.656 11.7537 63.3627 11.3675 62.7741 11.3675C62.4854 11.3675 62.2524 11.4733 62.0713 11.6859C61.8921 11.8985 61.8012 12.1492 61.8012 12.436V15.0317H60.8282V11.9069C60.8282 11.5225 60.8162 11.1057 60.793 10.6545H61.648L61.6935 11.3387H61.7204C61.8337 11.1261 62.0026 10.9507 62.2245 10.8105C62.4882 10.6471 62.7834 10.5645 63.1064 10.5645C63.5149 10.5645 63.8547 10.6963 64.1249 10.9609C64.4609 11.2849 64.629 11.7685 64.629 12.411V15.0327Z" fill="white"/>
<path d="M67.3118 15.0338H66.3398V8.64941H67.3118V15.0338Z" fill="white"/>
<path d="M73.0402 12.8094C73.0402 13.4825 72.848 14.0339 72.4636 14.4666C72.0607 14.9112 71.526 15.1331 70.8604 15.1331C70.217 15.1331 69.7055 14.9205 69.3248 14.4935C68.9442 14.0674 68.7539 13.5298 68.7539 12.8818C68.7539 12.2041 68.9498 11.648 69.3434 11.2164C69.737 10.7847 70.2662 10.5684 70.9318 10.5684C71.5752 10.5684 72.0904 10.781 72.4822 11.2071C72.8535 11.6211 73.0402 12.1559 73.0402 12.8094ZM72.0301 12.841C72.0301 12.4372 71.9428 12.0909 71.7692 11.8022C71.5659 11.4531 71.2744 11.2786 70.8975 11.2786C70.5057 11.2786 70.2086 11.4531 70.0053 11.8022C69.8308 12.0909 69.7445 12.4427 69.7445 12.8586C69.7445 13.2625 69.8317 13.6088 70.0053 13.8975C70.2161 14.2465 70.5094 14.4211 70.8882 14.4211C71.2596 14.4211 71.5501 14.2438 71.7599 13.8882C71.941 13.5939 72.0301 13.2448 72.0301 12.841Z" fill="white"/>
<path d="M77.7529 15.0338H76.8793L76.8069 14.5297H76.78C76.4811 14.9317 76.0549 15.1331 75.5016 15.1331C75.0885 15.1331 74.7543 15.0004 74.5027 14.7367C74.2743 14.4972 74.1602 14.1992 74.1602 13.8455C74.1602 13.3107 74.383 12.9032 74.8314 12.621C75.2788 12.3387 75.9083 12.2004 76.7187 12.2069V12.1252C76.7187 11.5487 76.4161 11.2609 75.8099 11.2609C75.3782 11.2609 74.9975 11.3695 74.6689 11.5849L74.4712 10.9462C74.8778 10.6946 75.38 10.5684 75.9723 10.5684C77.1161 10.5684 77.6898 11.1718 77.6898 12.3787V13.9903C77.6898 14.4276 77.7111 14.7757 77.7529 15.0338ZM76.7429 13.5298V12.8549C75.6697 12.8364 75.1331 13.1306 75.1331 13.7369C75.1331 13.9652 75.1944 14.1361 75.3197 14.2503C75.445 14.3644 75.6047 14.4211 75.795 14.4211C76.0085 14.4211 76.2081 14.3533 76.3901 14.2187C76.573 14.0831 76.6853 13.9114 76.7271 13.7007C76.7373 13.6533 76.7429 13.5958 76.7429 13.5298Z" fill="white"/>
<path d="M83.2792 15.0338H82.4158L82.3703 14.331H82.3434C82.0677 14.8657 81.5979 15.1331 80.9379 15.1331C80.4105 15.1331 79.9714 14.9261 79.6233 14.512C79.2752 14.098 79.1016 13.5605 79.1016 12.9004C79.1016 12.1921 79.29 11.6183 79.6688 11.1801C80.0355 10.7717 80.4848 10.5674 81.0196 10.5674C81.6072 10.5674 82.0185 10.7652 82.2524 11.1616H82.271V8.64941H83.2448V13.8548C83.2448 14.2809 83.256 14.6736 83.2792 15.0338ZM82.271 13.1882V12.4585C82.271 12.3322 82.2617 12.2301 82.2441 12.1521C82.1893 11.9182 82.0714 11.7214 81.8922 11.5626C81.7112 11.4039 81.493 11.324 81.2414 11.324C80.8784 11.324 80.5944 11.4679 80.3855 11.7566C80.1785 12.0454 80.0736 12.4139 80.0736 12.8642C80.0736 13.2968 80.1729 13.6477 80.3725 13.9179C80.5832 14.2057 80.8673 14.3496 81.2229 14.3496C81.5422 14.3496 81.7975 14.2298 81.9915 13.9894C82.1791 13.7675 82.271 13.5001 82.271 13.1882Z" fill="white"/>
<path d="M91.5968 12.8094C91.5968 13.4825 91.4046 14.0339 91.0203 14.4666C90.6174 14.9112 90.0845 15.1331 89.417 15.1331C88.7755 15.1331 88.264 14.9205 87.8815 14.4935C87.5009 14.0674 87.3105 13.5298 87.3105 12.8818C87.3105 12.2041 87.5064 11.648 87.9001 11.2164C88.2937 10.7847 88.8228 10.5684 89.4903 10.5684C90.1318 10.5684 90.6489 10.781 91.0389 11.2071C91.4102 11.6211 91.5968 12.1559 91.5968 12.8094ZM90.5886 12.841C90.5886 12.4372 90.5013 12.0909 90.3277 11.8022C90.1226 11.4531 89.8329 11.2786 89.4541 11.2786C89.0642 11.2786 88.7671 11.4531 88.562 11.8022C88.3874 12.0909 88.3011 12.4427 88.3011 12.8586C88.3011 13.2625 88.3884 13.6088 88.562 13.8975C88.7727 14.2465 89.0661 14.4211 89.4449 14.4211C89.8162 14.4211 90.1086 14.2438 90.3184 13.8882C90.4976 13.5939 90.5886 13.2448 90.5886 12.841Z" fill="white"/>
<path d="M96.8292 15.0327H95.8572V12.5261C95.8572 11.7537 95.5638 11.3675 94.9743 11.3675C94.6856 11.3675 94.4526 11.4733 94.2725 11.6859C94.0924 11.8985 94.0023 12.1492 94.0023 12.436V15.0317H93.0285V11.9069C93.0285 11.5225 93.0173 11.1057 92.9941 10.6545H93.8482L93.8937 11.3387H93.9206C94.0348 11.1261 94.2038 10.9507 94.4247 10.8105C94.6893 10.6471 94.9836 10.5645 95.3076 10.5645C95.7152 10.5645 96.0549 10.6963 96.3251 10.9609C96.6621 11.2849 96.8292 11.7685 96.8292 12.411V15.0327Z" fill="white"/>
<path d="M103.38 11.388H102.309V13.514C102.309 14.0543 102.499 14.3244 102.876 14.3244C103.051 14.3244 103.195 14.3096 103.31 14.2789L103.335 15.017C103.143 15.0894 102.89 15.1256 102.579 15.1256C102.195 15.1256 101.896 15.0086 101.679 14.7747C101.462 14.5407 101.354 14.1471 101.354 13.5947V11.388H100.715V10.6592H101.354V9.85713L102.308 9.56934V10.6583H103.379L103.38 11.388Z" fill="white"/>
<path d="M108.53 15.0338H107.556V12.5458C107.556 11.7613 107.263 11.3686 106.675 11.3686C106.224 11.3686 105.916 11.596 105.747 12.0509C105.718 12.1466 105.701 12.2635 105.701 12.4009V15.0328H104.729V8.64941H105.701V11.2869H105.72C106.026 10.8069 106.466 10.5674 107.035 10.5674C107.438 10.5674 107.771 10.6992 108.035 10.9638C108.365 11.2934 108.53 11.7836 108.53 12.4316V15.0338Z" fill="white"/>
<path d="M113.843 12.6372C113.843 12.8117 113.83 12.9584 113.807 13.0782H110.889C110.902 13.5108 111.041 13.8404 111.311 14.0687C111.558 14.273 111.877 14.3751 112.267 14.3751C112.698 14.3751 113.092 14.3064 113.446 14.1681L113.599 14.8439C113.184 15.024 112.695 15.1141 112.13 15.1141C111.452 15.1141 110.919 14.9145 110.532 14.5153C110.144 14.1161 109.952 13.5804 109.952 12.9083C109.952 12.2482 110.131 11.6986 110.492 11.2604C110.869 10.7925 111.379 10.5586 112.022 10.5586C112.652 10.5586 113.13 10.7925 113.453 11.2604C113.714 11.6318 113.843 12.0913 113.843 12.6372ZM112.915 12.3856C112.922 12.0969 112.858 11.8481 112.726 11.6383C112.557 11.3681 112.3 11.2326 111.952 11.2326C111.634 11.2326 111.375 11.3644 111.178 11.629C111.016 11.8397 110.92 12.0913 110.889 12.3856H112.915Z" fill="white"/>
</svg>
