<svg width="31" height="31" viewBox="0 0 31 31" fill="none" xmlns="http://www.w3.org/2000/svg">
<circle cx="15.5" cy="15.5" r="15.5" fill="#F7A293"/>
<g clip-path="url(#clip0_1713_25047)">
<path d="M16.0322 19C16.4263 19.0007 16.8166 18.9234 17.1808 18.7728C17.545 18.6221 17.8758 18.4009 18.1542 18.122L22.0732 14.2L20.6592 12.79L17.0262 16.424L17.0002 -7.62939e-06H15.0002L15.0262 16.408L11.4062 12.788L9.99219 14.2L13.9112 18.119C14.1893 18.3983 14.5198 18.6199 14.8838 18.7711C15.2478 18.9223 15.638 19.0001 16.0322 19Z" fill="white"/>
<path d="M26 16.0003V21.0003C26 21.2655 25.8946 21.5199 25.7071 21.7074C25.5196 21.895 25.2652 22.0003 25 22.0003H7C6.73478 22.0003 6.48043 21.895 6.29289 21.7074C6.10536 21.5199 6 21.2655 6 21.0003V16.0003H4V21.0003C4 21.796 4.31607 22.559 4.87868 23.1216C5.44129 23.6842 6.20435 24.0003 7 24.0003H25C25.7956 24.0003 26.5587 23.6842 27.1213 23.1216C27.6839 22.559 28 21.796 28 21.0003V16.0003H26Z" fill="white"/>
</g>
<defs>
<clipPath id="clip0_1713_25047">
<rect width="24" height="24" fill="white" transform="translate(4)"/>
</clipPath>
</defs>
</svg>
