<svg width="139" height="45" viewBox="0 0 139 45" fill="none" xmlns="http://www.w3.org/2000/svg">
<rect width="139" height="44.48" rx="8.34" fill="#181818"/>
<path d="M49.8915 12.4901C49.8915 13.259 49.6993 13.9318 49.2188 14.4123C48.6421 14.989 47.9693 15.2774 47.1044 15.2774C46.2394 15.2774 45.5666 14.989 44.99 14.4123C44.4133 13.8357 44.125 13.1629 44.125 12.2979C44.125 11.4328 44.4133 10.7601 44.99 10.1834C45.5666 9.6067 46.2394 9.31836 47.1044 9.31836C47.4888 9.31836 47.8732 9.41447 48.2577 9.6067C48.6421 9.79892 48.9304 9.99115 49.1227 10.2795L48.6421 10.7601C48.2577 10.2795 47.7771 10.0873 47.1044 10.0873C46.5277 10.0873 45.9511 10.2795 45.5666 10.7601C45.0861 11.1445 44.8939 11.7212 44.8939 12.394C44.8939 13.0668 45.0861 13.6434 45.5666 14.0279C46.0472 14.4123 46.5277 14.7007 47.1044 14.7007C47.7771 14.7007 48.2577 14.5085 48.7382 14.0279C49.0265 13.7396 49.2188 13.3551 49.2188 12.8745H47.1044V12.1056H49.8915V12.4901ZM54.3125 10.0873H51.7176V11.9134H54.1203V12.5862H51.7176V14.4123H54.3125V15.1812H50.9487V9.41447H54.3125V10.0873ZM57.4841 15.1812H56.7152V10.0873H55.0814V9.41447H59.118V10.0873H57.4841V15.1812ZM61.9051 15.1812V9.41447H62.674V15.1812H61.9051ZM65.9417 15.1812H65.1728V10.0873H63.539V9.41447H67.4794V10.0873H65.8456V15.1812H65.9417ZM75.072 14.4123C74.4954 14.989 73.8226 15.2774 72.9576 15.2774C72.0927 15.2774 71.4199 14.989 70.8432 14.4123C70.2666 13.8357 69.9783 13.1629 69.9783 12.2979C69.9783 11.4328 70.2666 10.7601 70.8432 10.1834C71.4199 9.6067 72.0927 9.31836 72.9576 9.31836C73.8226 9.31836 74.4954 9.6067 75.072 10.1834C75.6487 10.7601 75.937 11.4328 75.937 12.2979C75.937 13.1629 75.6487 13.8357 75.072 14.4123ZM71.4199 13.9318C71.8043 14.3162 72.381 14.6046 72.9576 14.6046C73.5343 14.6046 74.1109 14.4123 74.4954 13.9318C74.8798 13.5473 75.1681 12.9706 75.1681 12.2979C75.1681 11.6251 74.9759 11.0484 74.4954 10.6639C74.1109 10.2795 73.5343 9.99115 72.9576 9.99115C72.381 9.99115 71.8043 10.1834 71.4199 10.6639C71.0355 11.0484 70.7471 11.6251 70.7471 12.2979C70.7471 12.9706 70.9393 13.5473 71.4199 13.9318ZM76.9942 15.1812V9.41447H77.8592L80.6463 13.9318V9.41447H81.4152V15.1812H80.6463L77.667 10.4717V15.1812H76.9942Z" fill="white" stroke="white" stroke-width="0.192222" stroke-miterlimit="10"/>
<mask id="path-3-inside-1_1588_811" fill="white">
<path d="M69.7873 23.6394C67.4806 23.6394 65.6546 25.3694 65.6546 27.7722C65.6546 30.0789 67.4806 31.9051 69.7873 31.9051C72.0939 31.9051 73.9199 30.175 73.9199 27.7722C73.9199 25.2733 72.0939 23.6394 69.7873 23.6394ZM69.7873 30.175C68.5378 30.175 67.4806 29.1178 67.4806 27.6761C67.4806 26.2344 68.5378 25.1772 69.7873 25.1772C71.0367 25.1772 72.0939 26.1383 72.0939 27.6761C72.0939 29.1178 71.0367 30.175 69.7873 30.175ZM60.8491 23.6394C58.5425 23.6394 56.7165 25.3694 56.7165 27.7722C56.7165 30.0789 58.5425 31.9051 60.8491 31.9051C63.1558 31.9051 64.9818 30.175 64.9818 27.7722C64.9818 25.2733 63.1558 23.6394 60.8491 23.6394ZM60.8491 30.175C59.5997 30.175 58.5425 29.1178 58.5425 27.6761C58.5425 26.2344 59.5997 25.1772 60.8491 25.1772C62.0986 25.1772 63.1558 26.1383 63.1558 27.6761C63.1558 29.1178 62.0986 30.175 60.8491 30.175ZM50.1811 24.8888V26.6189H54.3137C54.2176 27.58 53.8332 28.3489 53.3527 28.8295C52.776 29.4061 51.8149 30.0789 50.1811 30.0789C47.5861 30.0789 45.664 28.0606 45.664 25.4655C45.664 22.8705 47.6822 20.8521 50.1811 20.8521C51.5266 20.8521 52.5838 21.4288 53.3527 22.1016L54.6021 20.8521C53.5449 19.891 52.1994 19.1221 50.2772 19.1221C46.8173 19.1221 43.8379 22.0055 43.8379 25.4655C43.8379 28.9256 46.8173 31.809 50.2772 31.809C52.1994 31.809 53.5449 31.2323 54.6982 29.9828C55.8515 28.8295 56.2359 27.1955 56.2359 25.9461C56.2359 25.5616 56.2359 25.1772 56.1398 24.8888H50.1811ZM93.8144 26.2344C93.43 25.2733 92.4689 23.6394 90.3545 23.6394C88.2401 23.6394 86.5102 25.2733 86.5102 27.7722C86.5102 30.0789 88.2401 31.9051 90.5467 31.9051C92.3728 31.9051 93.5261 30.7517 93.9106 30.0789L92.565 29.1178C92.0845 29.7906 91.5078 30.2712 90.5467 30.2712C89.5857 30.2712 89.009 29.8867 88.5285 29.0217L94.0067 26.715L93.8144 26.2344ZM88.2401 27.58C88.2401 26.0422 89.4896 25.1772 90.3545 25.1772C91.0273 25.1772 91.7001 25.5616 91.8923 26.0422L88.2401 27.58ZM83.723 31.5206H85.5491V19.5065H83.723V31.5206ZM80.8398 24.5044C80.3592 24.0238 79.5904 23.5433 78.6293 23.5433C76.611 23.5433 74.6888 25.3694 74.6888 27.6761C74.6888 29.9828 76.5149 31.7128 78.6293 31.7128C79.5904 31.7128 80.3592 31.2323 80.7437 30.7517H80.8398V31.3284C80.8398 32.8662 79.9748 33.7312 78.6293 33.7312C77.5721 33.7312 76.8032 32.9623 76.611 32.2895L75.0732 32.9623C75.5538 34.0196 76.7071 35.3651 78.7254 35.3651C80.8398 35.3651 82.5697 34.1157 82.5697 31.1362V23.8316H80.8398V24.5044ZM78.7254 30.175C77.476 30.175 76.4188 29.1178 76.4188 27.6761C76.4188 26.2344 77.476 25.1772 78.7254 25.1772C79.9748 25.1772 80.9359 26.2344 80.9359 27.6761C80.9359 29.1178 79.9748 30.175 78.7254 30.175ZM102.176 19.5065H97.851V31.5206H99.6771V27.0033H102.176C104.194 27.0033 106.116 25.5616 106.116 23.2549C106.116 20.9482 104.194 19.5065 102.176 19.5065ZM102.272 25.2733H99.6771V21.1404H102.272C103.618 21.1404 104.386 22.2938 104.386 23.1588C104.29 24.216 103.521 25.2733 102.272 25.2733ZM113.325 23.5433C111.979 23.5433 110.633 24.1199 110.153 25.3694L111.787 26.0422C112.171 25.3694 112.748 25.1772 113.421 25.1772C114.382 25.1772 115.247 25.7539 115.343 26.715V26.8111C115.054 26.6189 114.286 26.3305 113.517 26.3305C111.787 26.3305 110.057 27.2917 110.057 29.0217C110.057 30.6556 111.498 31.7128 113.036 31.7128C114.286 31.7128 114.862 31.1362 115.343 30.5595H115.439V31.5206H117.169V26.9072C116.977 24.7927 115.343 23.5433 113.325 23.5433ZM113.132 30.175C112.556 30.175 111.691 29.8867 111.691 29.1178C111.691 28.1567 112.748 27.8683 113.613 27.8683C114.382 27.8683 114.766 28.0606 115.247 28.2528C115.054 29.4061 114.093 30.175 113.132 30.175ZM123.224 23.8316L121.205 29.0217H121.109L118.995 23.8316H117.073L120.244 31.1362L118.418 35.1729H120.244L125.146 23.8316H123.224ZM107.077 31.5206H108.904V19.5065H107.077V31.5206Z"/>
</mask>
<path d="M69.7873 23.6394C67.4806 23.6394 65.6546 25.3694 65.6546 27.7722C65.6546 30.0789 67.4806 31.9051 69.7873 31.9051C72.0939 31.9051 73.9199 30.175 73.9199 27.7722C73.9199 25.2733 72.0939 23.6394 69.7873 23.6394ZM69.7873 30.175C68.5378 30.175 67.4806 29.1178 67.4806 27.6761C67.4806 26.2344 68.5378 25.1772 69.7873 25.1772C71.0367 25.1772 72.0939 26.1383 72.0939 27.6761C72.0939 29.1178 71.0367 30.175 69.7873 30.175ZM60.8491 23.6394C58.5425 23.6394 56.7165 25.3694 56.7165 27.7722C56.7165 30.0789 58.5425 31.9051 60.8491 31.9051C63.1558 31.9051 64.9818 30.175 64.9818 27.7722C64.9818 25.2733 63.1558 23.6394 60.8491 23.6394ZM60.8491 30.175C59.5997 30.175 58.5425 29.1178 58.5425 27.6761C58.5425 26.2344 59.5997 25.1772 60.8491 25.1772C62.0986 25.1772 63.1558 26.1383 63.1558 27.6761C63.1558 29.1178 62.0986 30.175 60.8491 30.175ZM50.1811 24.8888V26.6189H54.3137C54.2176 27.58 53.8332 28.3489 53.3527 28.8295C52.776 29.4061 51.8149 30.0789 50.1811 30.0789C47.5861 30.0789 45.664 28.0606 45.664 25.4655C45.664 22.8705 47.6822 20.8521 50.1811 20.8521C51.5266 20.8521 52.5838 21.4288 53.3527 22.1016L54.6021 20.8521C53.5449 19.891 52.1994 19.1221 50.2772 19.1221C46.8173 19.1221 43.8379 22.0055 43.8379 25.4655C43.8379 28.9256 46.8173 31.809 50.2772 31.809C52.1994 31.809 53.5449 31.2323 54.6982 29.9828C55.8515 28.8295 56.2359 27.1955 56.2359 25.9461C56.2359 25.5616 56.2359 25.1772 56.1398 24.8888H50.1811ZM93.8144 26.2344C93.43 25.2733 92.4689 23.6394 90.3545 23.6394C88.2401 23.6394 86.5102 25.2733 86.5102 27.7722C86.5102 30.0789 88.2401 31.9051 90.5467 31.9051C92.3728 31.9051 93.5261 30.7517 93.9106 30.0789L92.565 29.1178C92.0845 29.7906 91.5078 30.2712 90.5467 30.2712C89.5857 30.2712 89.009 29.8867 88.5285 29.0217L94.0067 26.715L93.8144 26.2344ZM88.2401 27.58C88.2401 26.0422 89.4896 25.1772 90.3545 25.1772C91.0273 25.1772 91.7001 25.5616 91.8923 26.0422L88.2401 27.58ZM83.723 31.5206H85.5491V19.5065H83.723V31.5206ZM80.8398 24.5044C80.3592 24.0238 79.5904 23.5433 78.6293 23.5433C76.611 23.5433 74.6888 25.3694 74.6888 27.6761C74.6888 29.9828 76.5149 31.7128 78.6293 31.7128C79.5904 31.7128 80.3592 31.2323 80.7437 30.7517H80.8398V31.3284C80.8398 32.8662 79.9748 33.7312 78.6293 33.7312C77.5721 33.7312 76.8032 32.9623 76.611 32.2895L75.0732 32.9623C75.5538 34.0196 76.7071 35.3651 78.7254 35.3651C80.8398 35.3651 82.5697 34.1157 82.5697 31.1362V23.8316H80.8398V24.5044ZM78.7254 30.175C77.476 30.175 76.4188 29.1178 76.4188 27.6761C76.4188 26.2344 77.476 25.1772 78.7254 25.1772C79.9748 25.1772 80.9359 26.2344 80.9359 27.6761C80.9359 29.1178 79.9748 30.175 78.7254 30.175ZM102.176 19.5065H97.851V31.5206H99.6771V27.0033H102.176C104.194 27.0033 106.116 25.5616 106.116 23.2549C106.116 20.9482 104.194 19.5065 102.176 19.5065ZM102.272 25.2733H99.6771V21.1404H102.272C103.618 21.1404 104.386 22.2938 104.386 23.1588C104.29 24.216 103.521 25.2733 102.272 25.2733ZM113.325 23.5433C111.979 23.5433 110.633 24.1199 110.153 25.3694L111.787 26.0422C112.171 25.3694 112.748 25.1772 113.421 25.1772C114.382 25.1772 115.247 25.7539 115.343 26.715V26.8111C115.054 26.6189 114.286 26.3305 113.517 26.3305C111.787 26.3305 110.057 27.2917 110.057 29.0217C110.057 30.6556 111.498 31.7128 113.036 31.7128C114.286 31.7128 114.862 31.1362 115.343 30.5595H115.439V31.5206H117.169V26.9072C116.977 24.7927 115.343 23.5433 113.325 23.5433ZM113.132 30.175C112.556 30.175 111.691 29.8867 111.691 29.1178C111.691 28.1567 112.748 27.8683 113.613 27.8683C114.382 27.8683 114.766 28.0606 115.247 28.2528C115.054 29.4061 114.093 30.175 113.132 30.175ZM123.224 23.8316L121.205 29.0217H121.109L118.995 23.8316H117.073L120.244 31.1362L118.418 35.1729H120.244L125.146 23.8316H123.224ZM107.077 31.5206H108.904V19.5065H107.077V31.5206Z" fill="white" stroke="white" stroke-width="1.92222" mask="url(#path-3-inside-1_1588_811)"/>
<path d="M14.3337 9.89746C14.0453 10.1858 13.9492 10.6664 13.9492 11.243V32.484C13.9492 33.0606 14.1414 33.5412 14.4298 33.8295L14.5259 33.9257L26.4433 22.0077V21.8154L14.3337 9.89746Z" fill="url(#paint0_linear_1588_811)"/>
<path d="M30.2862 26.0436L26.3457 22.103V21.8146L30.2862 17.874L30.3823 17.9701L35.0916 20.6613C36.4371 21.4302 36.4371 22.6797 35.0916 23.4486L30.2862 26.0436Z" fill="url(#paint1_linear_1588_811)"/>
<path d="M30.3822 25.9479L26.3456 21.9111L14.332 33.9252C14.8126 34.4058 15.4853 34.4058 16.3503 34.0213L30.3822 25.9479Z" fill="url(#paint2_linear_1588_811)"/>
<path d="M30.3822 17.8744L16.3503 9.897C15.4853 9.41644 14.8126 9.51255 14.332 9.99311L26.3456 21.9111L30.3822 17.8744Z" fill="url(#paint3_linear_1588_811)"/>
<path opacity="0.2" d="M30.2861 25.8506L16.3503 33.7318C15.5814 34.2124 14.9087 34.1163 14.4281 33.7318L14.332 33.828L14.4281 33.9241C14.9087 34.3085 15.5814 34.4046 16.3503 33.9241L30.2861 25.8506Z" fill="black"/>
<path opacity="0.12" d="M14.3337 33.734C14.0453 33.4456 13.9492 32.9651 13.9492 32.3884V32.4845C13.9492 33.0612 14.1414 33.5418 14.4298 33.8301V33.734H14.3337ZM35.0931 23.1616L30.2877 25.8527L30.3838 25.9488L35.0931 23.2577C35.7659 22.8732 36.0542 22.3927 36.0542 21.9121C36.0542 22.3927 35.6698 22.7771 35.0931 23.1616Z" fill="black"/>
<path opacity="0.25" d="M16.3519 9.99283L35.0931 20.6613C35.6698 21.0458 36.0542 21.4303 36.0542 21.9108C36.0542 21.4303 35.7659 20.9497 35.0931 20.5652L16.3519 9.89671C15.0064 9.12781 13.9492 9.70449 13.9492 11.2423V11.3384C13.9492 9.89671 15.0064 9.22392 16.3519 9.99283Z" fill="white"/>
<defs>
<linearGradient id="paint0_linear_1588_811" x1="25.29" y1="11.0604" x2="9.15943" y2="27.1894" gradientUnits="userSpaceOnUse">
<stop stop-color="#00A0FF"/>
<stop offset="0.007" stop-color="#00A1FF"/>
<stop offset="0.26" stop-color="#00BEFF"/>
<stop offset="0.512" stop-color="#00D2FF"/>
<stop offset="0.76" stop-color="#00DFFF"/>
<stop offset="1" stop-color="#00E3FF"/>
</linearGradient>
<linearGradient id="paint1_linear_1588_811" x1="36.8542" y1="21.9117" x2="13.5988" y2="21.9117" gradientUnits="userSpaceOnUse">
<stop stop-color="#FFE000"/>
<stop offset="0.409" stop-color="#FFBD00"/>
<stop offset="0.775" stop-color="#FFA500"/>
<stop offset="1" stop-color="#FF9C00"/>
</linearGradient>
<linearGradient id="paint2_linear_1588_811" x1="28.1976" y1="24.1179" x2="6.32429" y2="45.9903" gradientUnits="userSpaceOnUse">
<stop stop-color="#FF3A44"/>
<stop offset="1" stop-color="#C31162"/>
</linearGradient>
<linearGradient id="paint3_linear_1588_811" x1="11.3498" y1="2.8577" x2="21.1177" y2="12.6252" gradientUnits="userSpaceOnUse">
<stop stop-color="#32A071"/>
<stop offset="0.069" stop-color="#2DA771"/>
<stop offset="0.476" stop-color="#15CF74"/>
<stop offset="0.801" stop-color="#06E775"/>
<stop offset="1" stop-color="#00F076"/>
</linearGradient>
</defs>
</svg>
