<svg width="28" height="28" viewBox="0 0 28 28" fill="none" xmlns="http://www.w3.org/2000/svg">
<g clip-path="url(#clip0_1547_7755)">
<path d="M4.66699 9.33317C4.66699 8.09549 5.15866 6.90851 6.03383 6.03334C6.909 5.15817 8.09598 4.6665 9.33366 4.6665H18.667C19.9047 4.6665 21.0917 5.15817 21.9668 6.03334C22.842 6.90851 23.3337 8.09549 23.3337 9.33317V18.6665C23.3337 19.9042 22.842 21.0912 21.9668 21.9663C21.0917 22.8415 19.9047 23.3332 18.667 23.3332H9.33366C8.09598 23.3332 6.909 22.8415 6.03383 21.9663C5.15866 21.0912 4.66699 19.9042 4.66699 18.6665V9.33317Z" stroke="white" stroke-width="1.75" stroke-linecap="round" stroke-linejoin="round"/>
<path d="M10.5 14C10.5 14.9283 10.8687 15.8185 11.5251 16.4749C12.1815 17.1313 13.0717 17.5 14 17.5C14.9283 17.5 15.8185 17.1313 16.4749 16.4749C17.1313 15.8185 17.5 14.9283 17.5 14C17.5 13.0717 17.1313 12.1815 16.4749 11.5251C15.8185 10.8687 14.9283 10.5 14 10.5C13.0717 10.5 12.1815 10.8687 11.5251 11.5251C10.8687 12.1815 10.5 13.0717 10.5 14Z" stroke="white" stroke-width="1.75" stroke-linecap="round" stroke-linejoin="round"/>
<path d="M19.25 8.75V8.76167" stroke="white" stroke-width="1.75" stroke-linecap="round" stroke-linejoin="round"/>
</g>
<defs>
<clipPath id="clip0_1547_7755">
<rect width="28" height="28" fill="white"/>
</clipPath>
</defs>
</svg>
