<svg width="197" height="37" viewBox="0 0 197 37" fill="none" xmlns="http://www.w3.org/2000/svg">
<path fill-rule="evenodd" clip-rule="evenodd" d="M16.5397 34.9278C16.5396 34.9278 16.5395 34.9279 16.5394 34.9279L16.5394 34.9276C16.445 34.8571 16.3487 34.7852 16.2508 34.7122C10.8177 30.6593 0.158634 22.7081 3.67974 16.1897C7.23037 9.61667 13.9102 11.6902 16.5952 15.4859C19.2801 11.6902 25.95 9.61667 29.5007 16.1897C32.9963 22.661 22.4202 30.5443 16.9475 34.6236C16.8083 34.7274 16.6723 34.8288 16.5399 34.9276L16.5399 34.9279C16.5398 34.9279 16.5398 34.9278 16.5397 34.9278Z" fill="white"/>
<mask id="mask0_1697_25072" style="mask-type:alpha" maskUnits="userSpaceOnUse" x="2" y="11" width="29" height="24">
<path fill-rule="evenodd" clip-rule="evenodd" d="M16.5408 34.9275L16.5408 34.9279C16.5408 34.9278 16.5409 34.9278 16.541 34.9277C16.5411 34.9278 16.5412 34.9278 16.5412 34.9279L16.5412 34.9275C16.6736 34.8287 16.8096 34.7274 16.9489 34.6236C22.4215 30.5443 32.9976 22.6609 29.502 16.1897C25.9514 9.61663 19.2814 11.6902 16.5965 15.4858C13.9115 11.6902 7.23168 9.61663 3.68106 16.1897C0.159947 22.7081 10.819 30.6593 16.2521 34.7121C16.35 34.7852 16.4463 34.857 16.5408 34.9275Z" fill="white"/>
</mask>
<g mask="url(#mask0_1697_25072)">
<g filter="url(#filter0_f_1697_25072)">
<ellipse cx="6.39004" cy="18.8393" rx="11.0356" ry="10.7208" fill="#F680B4"/>
</g>
<g filter="url(#filter1_f_1697_25072)">
<ellipse cx="27.1653" cy="13.7659" rx="11.591" ry="16.6459" fill="#F6783D"/>
</g>
<g filter="url(#filter2_f_1697_25072)">
<ellipse cx="16.6696" cy="30.1001" rx="5.50259" ry="5.86652" fill="#FFC5A1"/>
</g>
</g>
<g opacity="0.7">
<path fill-rule="evenodd" clip-rule="evenodd" d="M16.639 24.744C16.6391 24.744 16.6392 24.7441 16.6393 24.7442L16.6393 24.7438C16.7337 24.6733 16.83 24.6015 16.9279 24.5284C22.3611 20.4755 33.0201 12.5243 29.499 6.00593C25.9483 -0.567112 19.2685 1.50645 16.5836 5.30208C13.8986 1.50645 7.22867 -0.567112 3.67805 6.00593C0.182417 12.4772 10.7585 20.3605 16.2312 24.4398C16.3705 24.5436 16.5064 24.645 16.6388 24.7438L16.6388 24.7441C16.6389 24.7441 16.6389 24.744 16.639 24.744Z" fill="white"/>
<mask id="mask1_1697_25072" style="mask-type:alpha" maskUnits="userSpaceOnUse" x="2" y="1" width="29" height="24">
<path fill-rule="evenodd" clip-rule="evenodd" d="M16.638 24.7438L16.638 24.7442C16.6379 24.7441 16.6378 24.744 16.6377 24.744C16.6376 24.744 16.6376 24.7441 16.6375 24.7441L16.6375 24.7438C16.5051 24.645 16.3691 24.5436 16.2299 24.4398C10.7572 20.3605 0.181105 12.4772 3.67673 6.00593C7.22736 -0.567112 13.8973 1.50645 16.5822 5.30208C19.2672 1.50645 25.947 -0.567112 29.4977 6.00593C33.0188 12.5243 22.3597 20.4755 16.9266 24.5284C16.8287 24.6015 16.7324 24.6733 16.638 24.7438Z" fill="white"/>
</mask>
<g mask="url(#mask1_1697_25072)">
<g filter="url(#filter3_f_1697_25072)">
<ellipse cx="11.0356" cy="10.7208" rx="11.0356" ry="10.7208" transform="matrix(-1 0 0 1 37.8232 -2.06519)" fill="#F680B4"/>
</g>
<g filter="url(#filter4_f_1697_25072)">
<ellipse cx="11.591" cy="16.6459" rx="11.591" ry="16.6459" transform="matrix(-1 0 0 1 17.6045 -13.0637)" fill="#F6783D"/>
</g>
<g filter="url(#filter5_f_1697_25072)">
<ellipse cx="5.50259" cy="5.86652" rx="5.50259" ry="5.86652" transform="matrix(-1 0 0 1 22.0107 14.0499)" fill="#FFC5A1"/>
</g>
</g>
</g>
<path d="M60.5081 10.1421L60.4704 15.502V22.3095C60.4704 25.1656 62.6574 24.5396 62.6574 25.6742C62.6574 26.2219 62.2803 26.6523 61.4508 27.1217C60.3196 27.7477 58.2081 28.4911 57.1523 28.4911C56.0965 28.4911 55.6441 27.8651 55.5687 26.2219L55.531 25.1656C53.985 27.3174 51.5718 28.4911 49.5357 28.4911C45.4635 28.4911 43.1634 25.635 43.1634 20.6272V15.502C43.1634 12.8025 41.3535 13.0764 41.3535 11.9027C41.3535 11.3941 41.6175 11.1202 42.5224 10.6898C44.106 9.90737 46.8209 8.96841 47.4242 8.96841C48.0275 8.96841 48.2914 9.32052 48.2914 10.1421L48.2537 15.502V20.3534C48.2537 23.3268 49.0455 25.2047 51.3079 25.1656C53.3063 25.1264 55.3801 22.9355 55.3801 19.61V15.502C55.3801 12.8025 53.5702 13.0764 53.5702 11.9027C53.5702 11.3941 53.8342 11.1202 54.7391 10.6898C56.3228 9.90737 59.0376 8.96841 59.6409 8.96841C60.2442 8.96841 60.5081 9.32052 60.5081 10.1421Z" fill="#F7A293"/>
<path d="M83.5668 17.0279L84.8488 23.718C85.339 26.1045 86.8472 25.7915 86.8472 27.1609C86.8472 27.9433 86.2062 28.139 85.1881 28.139H79.9093C78.8535 28.139 78.2125 27.9042 78.2125 27.1217C78.2125 25.8307 80.1733 25.948 79.6831 23.405L78.5142 17.2235C78.0617 14.7587 77.3453 12.333 74.8567 12.3722C72.8583 12.3722 71.0484 14.2501 71.0484 17.693V22.7008C71.0484 26.3393 72.8583 25.4394 72.8583 27.1609C72.8583 27.9433 72.255 28.139 71.1992 28.139H65.8073C64.7515 28.139 64.0728 27.9042 64.0728 27.1217C64.0728 25.4394 65.9581 26.3393 65.9581 22.7008V15.2673C65.9581 14.1718 65.5434 13.4676 64.7892 12.8808C64.4122 12.6069 64.0728 12.333 64.0728 11.7853C64.0728 11.1593 64.3745 10.8855 65.2794 10.4551C66.6745 9.75088 69.0123 9.04665 69.6156 9.00753C70.2566 9.00753 70.5205 9.39877 70.5205 10.1812V12.5287C71.9534 10.1812 74.2534 8.96841 76.6666 8.96841C80.9651 8.96841 82.5864 11.8636 83.5668 17.0279Z" fill="#F7A293"/>
<path d="M92.0347 6.81661C90.6019 6.77749 89.7347 5.72115 89.7724 4.43007C89.8101 2.63039 91.8085 0.635087 93.7315 0.713334C95.0889 0.752457 96.107 1.84792 96.107 3.17812C96.0316 5.09517 93.9954 6.85573 92.0347 6.81661ZM90.3757 28.2563V15.4629C90.3757 12.7634 88.5658 13.0373 88.5658 11.8244C88.5658 11.3158 88.8674 11.042 89.7724 10.6116C91.3183 9.82913 94.0331 8.92928 94.6364 8.89016C95.2774 8.89016 95.5414 9.2814 95.5414 10.0639L95.5037 15.4238L95.466 28.2563V29.5474C95.466 34.6726 92.5249 36.3158 89.3576 36.3158C85.7001 36.3158 85.2099 34.0466 86.869 34.0466C89.2068 34.0466 90.3757 32.2861 90.3757 28.2563Z" fill="#F7A293"/>
<path d="M115.718 22.1531C116.472 21.3706 117.302 21.9966 116.925 23.1311C116.171 25.3221 113.041 28.5302 108.026 28.5302C102.672 28.5302 99.0522 24.6961 99.0522 19.3362C99.0522 13.3111 103.539 8.96841 108.818 8.96841C113.343 8.96841 115.944 11.7853 116.472 15.1499C116.585 15.7759 116.321 16.3236 115.605 16.6758C111.759 18.4754 108.705 19.6883 104.783 21.175C105.575 22.9746 107.31 24.7352 110.213 24.7352C112.513 24.7352 114.361 23.5224 115.718 22.1531ZM107.159 11.5506C104.972 11.8244 103.803 13.9762 103.803 16.4801C103.803 17.3409 103.916 18.2798 104.105 18.9449C106.292 18.1624 108.441 17.38 110.477 16.4801C111.118 16.1671 111.608 15.8933 111.344 14.8761C110.816 12.6069 108.969 11.1985 107.159 11.5506Z" fill="#F7A293"/>
<path d="M128.318 28.5302C122.549 28.5302 119.231 24.2266 119.231 19.3753C119.231 13.3894 123.642 8.96841 129.072 8.96841C133.748 8.96841 136.689 12.0983 136.689 15.4629C136.689 17.2626 135.52 18.1624 134.275 18.1624C132.692 18.1624 132.088 17.067 131.749 15.6977C131.07 13.2329 129.902 11.5114 127.903 11.4723C125.528 11.4723 124.132 13.585 124.132 16.6758C124.132 21.488 126.659 24.7352 130.58 24.7352C132.88 24.7352 134.275 23.6397 135.595 22.3878C136.387 21.6444 137.141 22.2313 136.764 23.405C136.048 25.5568 133.333 28.5302 128.318 28.5302Z" fill="#F7A293"/>
<path d="M150.762 23.718C151.479 23.1703 152.12 23.718 151.856 24.5396C151.29 26.3002 149.329 28.5302 146.162 28.5302C142.769 28.5302 140.808 26.3393 140.808 22.3487V20.3142C140.808 16.8322 140.846 13.8589 140.921 11.8244H139.903C138.885 11.8244 138.583 11.4723 138.583 10.8072C138.583 10.3377 138.734 9.86825 139.149 9.47701C140.544 7.99032 142.354 6.4645 143.9 5.48641C144.767 4.9778 145.069 4.93868 145.295 4.93868C145.823 4.93868 146.162 5.44729 146.124 6.03414C146.011 7.09048 145.974 8.14681 145.936 9.35964H149.669C150.385 9.35964 150.989 9.55526 150.762 10.729C150.536 11.9027 149.895 12.0983 149.141 12.0592L145.898 11.9418C145.898 14.0936 145.898 16.754 145.861 20.3142C145.823 23.7962 146.351 24.8526 148.047 24.8526C149.028 24.8526 149.97 24.344 150.762 23.718Z" fill="#F7A293"/>
<path d="M169.773 22.1531C170.527 21.3706 171.357 21.9966 170.98 23.1311C170.226 25.3221 167.096 28.5302 162.081 28.5302C156.727 28.5302 153.107 24.6961 153.107 19.3362C153.107 13.3111 157.594 8.96841 162.873 8.96841C167.398 8.96841 169.999 11.7853 170.527 15.1499C170.64 15.7759 170.376 16.3236 169.66 16.6758C165.814 18.4754 162.76 19.6883 158.838 21.175C159.63 22.9746 161.365 24.7352 164.268 24.7352C166.568 24.7352 168.416 23.5224 169.773 22.1531ZM161.214 11.5506C159.027 11.8244 157.858 13.9762 157.858 16.4801C157.858 17.3409 157.971 18.2798 158.16 18.9449C160.347 18.1624 162.496 17.38 164.532 16.4801C165.173 16.1671 165.663 15.8933 165.399 14.8761C164.871 12.6069 163.024 11.1985 161.214 11.5506Z" fill="#F7A293"/>
<path d="M191.988 1.53493L191.95 6.89486L191.875 22.2313C191.875 25.1264 194.099 24.5005 194.099 25.635C194.099 26.1828 193.722 26.574 192.855 27.0826C191.762 27.6695 189.612 28.4519 188.557 28.4519C187.501 28.4519 187.086 27.7868 186.973 26.1437L186.935 25.3612C185.729 27.1609 183.768 28.6084 180.827 28.4911C176.415 28.4128 173.286 24.8526 173.286 19.8056C173.286 13.0373 178.414 8.96841 182.825 8.96841C184.371 8.96841 185.766 9.35964 186.822 9.98562V6.93398C186.822 4.23446 185.05 4.4692 185.05 3.29549C185.05 2.78688 185.314 2.51302 186.219 2.08266C187.803 1.30019 190.517 0.361221 191.121 0.361221C191.724 0.361221 191.988 0.713334 191.988 1.53493ZM183.052 25.1264C185.314 25.1264 186.596 23.1703 186.822 20.7837V18.4363C186.747 16.8322 186.521 15.2282 185.993 14.1327C185.201 12.333 183.881 11.4332 182.222 11.4332C179.658 11.4332 178.15 13.7806 178.15 17.4191C178.15 22.2313 180.45 25.1264 183.052 25.1264Z" fill="#F7A293"/>
<defs>
<filter id="filter0_f_1697_25072" x="-12.9407" y="-0.176665" width="38.6616" height="38.0319" filterUnits="userSpaceOnUse" color-interpolation-filters="sRGB">
<feFlood flood-opacity="0" result="BackgroundImageFix"/>
<feBlend mode="normal" in="SourceGraphic" in2="BackgroundImageFix" result="shape"/>
<feGaussianBlur stdDeviation="4.14759" result="effect1_foregroundBlur_1697_25072"/>
</filter>
<filter id="filter1_f_1697_25072" x="7.27904" y="-11.1752" width="39.772" height="49.8822" filterUnits="userSpaceOnUse" color-interpolation-filters="sRGB">
<feFlood flood-opacity="0" result="BackgroundImageFix"/>
<feBlend mode="normal" in="SourceGraphic" in2="BackgroundImageFix" result="shape"/>
<feGaussianBlur stdDeviation="4.14759" result="effect1_foregroundBlur_1697_25072"/>
</filter>
<filter id="filter2_f_1697_25072" x="0.279569" y="13.3462" width="32.7797" height="33.5079" filterUnits="userSpaceOnUse" color-interpolation-filters="sRGB">
<feFlood flood-opacity="0" result="BackgroundImageFix"/>
<feBlend mode="normal" in="SourceGraphic" in2="BackgroundImageFix" result="shape"/>
<feGaussianBlur stdDeviation="5.44371" result="effect1_foregroundBlur_1697_25072"/>
</filter>
<filter id="filter3_f_1697_25072" x="7.45677" y="-10.3604" width="38.6616" height="38.0319" filterUnits="userSpaceOnUse" color-interpolation-filters="sRGB">
<feFlood flood-opacity="0" result="BackgroundImageFix"/>
<feBlend mode="normal" in="SourceGraphic" in2="BackgroundImageFix" result="shape"/>
<feGaussianBlur stdDeviation="4.14759" result="effect1_foregroundBlur_1697_25072"/>
</filter>
<filter id="filter4_f_1697_25072" x="-13.8723" y="-21.3589" width="39.772" height="49.8822" filterUnits="userSpaceOnUse" color-interpolation-filters="sRGB">
<feFlood flood-opacity="0" result="BackgroundImageFix"/>
<feBlend mode="normal" in="SourceGraphic" in2="BackgroundImageFix" result="shape"/>
<feGaussianBlur stdDeviation="4.14759" result="effect1_foregroundBlur_1697_25072"/>
</filter>
<filter id="filter5_f_1697_25072" x="0.118436" y="3.16243" width="32.7797" height="33.5079" filterUnits="userSpaceOnUse" color-interpolation-filters="sRGB">
<feFlood flood-opacity="0" result="BackgroundImageFix"/>
<feBlend mode="normal" in="SourceGraphic" in2="BackgroundImageFix" result="shape"/>
<feGaussianBlur stdDeviation="5.44371" result="effect1_foregroundBlur_1697_25072"/>
</filter>
</defs>
</svg>
