<svg width="28" height="28" viewBox="0 0 28 28" fill="none" xmlns="http://www.w3.org/2000/svg">
<g clip-path="url(#clip0_1547_7758)">
<path d="M9.33301 23.3335L13.9997 12.8335" stroke="white" stroke-width="1.75" stroke-linecap="round" stroke-linejoin="round"/>
<path d="M12.4837 16.3332C12.9935 17.8067 14.152 18.6665 15.4587 18.6665C17.8748 18.6665 19.8337 16.8535 19.8337 13.9998C19.8347 13.148 19.6491 12.3062 19.2899 11.5338C18.9308 10.7613 18.4068 10.0768 17.7549 9.52855C17.1029 8.98026 16.3387 8.58142 15.5161 8.36005C14.6935 8.13869 13.8324 8.10019 12.9933 8.24724C12.1543 8.3943 11.3576 8.72335 10.6593 9.21126C9.96096 9.69917 9.37799 10.3341 8.95134 11.0714C8.52469 11.8088 8.26471 12.6306 8.18967 13.4792C8.11463 14.3277 8.22635 15.1824 8.51699 15.9832" stroke="white" stroke-width="1.75" stroke-linecap="round" stroke-linejoin="round"/>
<path d="M3.5 14C3.5 15.3789 3.77159 16.7443 4.29926 18.0182C4.82694 19.2921 5.60036 20.4496 6.57538 21.4246C7.55039 22.3996 8.70791 23.1731 9.98182 23.7007C11.2557 24.2284 12.6211 24.5 14 24.5C15.3789 24.5 16.7443 24.2284 18.0182 23.7007C19.2921 23.1731 20.4496 22.3996 21.4246 21.4246C22.3996 20.4496 23.1731 19.2921 23.7007 18.0182C24.2284 16.7443 24.5 15.3789 24.5 14C24.5 12.6211 24.2284 11.2557 23.7007 9.98182C23.1731 8.70791 22.3996 7.55039 21.4246 6.57538C20.4496 5.60036 19.2921 4.82694 18.0182 4.29927C16.7443 3.77159 15.3789 3.5 14 3.5C12.6211 3.5 11.2557 3.77159 9.98182 4.29927C8.70791 4.82694 7.55039 5.60036 6.57538 6.57538C5.60036 7.55039 4.82694 8.70791 4.29926 9.98182C3.77159 11.2557 3.5 12.6211 3.5 14Z" stroke="white" stroke-width="1.75" stroke-linecap="round" stroke-linejoin="round"/>
</g>
<defs>
<clipPath id="clip0_1547_7758">
<rect width="28" height="28" fill="white"/>
</clipPath>
</defs>
</svg>
