<svg width="24" height="16" viewBox="0 0 24 16" fill="none" xmlns="http://www.w3.org/2000/svg">
<path d="M23 7.00063H1.00001C0.447718 7.00063 0 7.44834 0 8.00063C0 8.55292 0.447718 9.00064 1.00001 9.00064H23C23.5523 9.00064 24 8.55292 24 8.00063C24 7.44834 23.5523 7.00063 23 7.00063Z" fill="#484848"/>
<path d="M23 0.000305176H0.999998C0.447714 0.000305176 0 0.44802 0 1.0003C0 1.55259 0.447714 2.0003 0.999998 2.0003H23C23.5523 2.0003 24 1.55259 24 1.0003C24 0.44802 23.5523 0.000305176 23 0.000305176Z" fill="#484848"/>
<path d="M23 14H1.00001C0.447718 14 0 14.4477 0 15C0 15.5523 0.447718 16 1.00001 16H23C23.5523 16 24 15.5523 24 15C24 14.4477 23.5523 14 23 14Z" fill="#484848"/>
</svg>
