<svg width="28" height="28" viewBox="0 0 28 28" fill="none" xmlns="http://www.w3.org/2000/svg">
<g clip-path="url(#clip0_1547_7757)">
<path d="M25.6663 4.67835C24.4997 5.25002 23.3563 5.48218 22.1663 5.83335C20.8585 4.35752 18.9195 4.27585 17.0563 4.97352C15.1932 5.67118 13.9728 7.37685 13.9997 9.33335V10.5C10.2138 10.5968 6.84217 8.87252 4.66634 5.83335C4.66634 5.83335 -0.212659 14.5052 9.33301 18.6667C7.14901 20.1215 4.97084 21.1027 2.33301 21C6.19234 23.1035 10.3982 23.8268 14.0393 22.7698C18.216 21.5565 21.6483 18.4263 22.9655 13.7375C23.3584 12.3115 23.5535 10.8382 23.5453 9.35902C23.5453 9.06852 25.307 6.12502 25.6663 4.67718V4.67835Z" stroke="white" stroke-width="1.75" stroke-linecap="round" stroke-linejoin="round"/>
</g>
<defs>
<clipPath id="clip0_1547_7757">
<rect width="28" height="28" fill="white"/>
</clipPath>
</defs>
</svg>
