<svg width="25" height="24" viewBox="0 0 25 24" fill="none" xmlns="http://www.w3.org/2000/svg">
<path d="M13.217 1.24651C13.1508 1.11297 13.0487 1.00056 12.922 0.92198C12.7954 0.843397 12.6493 0.801758 12.5002 0.801758C12.3512 0.801758 12.2051 0.843397 12.0784 0.92198C11.9518 1.00056 11.8496 1.11297 11.7834 1.24651L8.50823 7.88172L1.18503 8.94571C1.03727 8.96717 0.898466 9.02955 0.784316 9.1258C0.670167 9.22204 0.585229 9.34831 0.539114 9.49032C0.492998 9.63233 0.487544 9.78441 0.52337 9.92936C0.559195 10.0743 0.634869 10.2063 0.741832 10.3105L6.04103 15.4753L4.78983 22.7697C4.76473 22.9167 4.78123 23.0678 4.83745 23.206C4.89368 23.3441 4.9874 23.4638 5.10804 23.5515C5.22868 23.6392 5.37143 23.6914 5.52017 23.7022C5.66892 23.7131 5.81774 23.6822 5.94983 23.6129L12.5002 20.1681L19.0506 23.6129C19.1827 23.6822 19.3315 23.7131 19.4803 23.7022C19.629 23.6914 19.7718 23.6392 19.8924 23.5515C20.0131 23.4638 20.1068 23.3441 20.163 23.206C20.2192 23.0678 20.2357 22.9167 20.2106 22.7697L18.9594 15.4737L24.2586 10.3105C24.3656 10.2063 24.4413 10.0743 24.4771 9.92936C24.5129 9.78441 24.5075 9.63233 24.4613 9.49032C24.4152 9.34831 24.3303 9.22204 24.2161 9.1258C24.102 9.02955 23.9632 8.96717 23.8154 8.94571L16.4922 7.88172L13.217 1.24651Z" fill="url(#paint0_linear_1879_25280)"/>
<defs>
<linearGradient id="paint0_linear_1879_25280" x1="12.5002" y1="0.801758" x2="12.5002" y2="23.7044" gradientUnits="userSpaceOnUse">
<stop stop-color="#F9C50A"/>
<stop offset="1" stop-color="#FF9900"/>
</linearGradient>
</defs>
</svg>
